<svg viewBox="0 0 20 20" xmlns="http://www.w3.org/2000/svg"><path d="m10 0a10 10 0 1 1 -4.67 18.83c-.3-.12-.54-.33-.82-.47a1.42 1.42 0 0 0 -1 0 21.73 21.73 0 0 1 -2.27.64c-.4 0-.52-.23-.52-.62a18.76 18.76 0 0 1 .7-2.38 1.23 1.23 0 0 0 -.09-1l-.2-.39a9.83 9.83 0 0 1 -1.13-4.55v-.06a10 10 0 0 1 10-10m4.61 8.73a1.28 1.28 0 1 0 1.28 1.27 1.28 1.28 0 0 0 -1.28-1.28m-4.61.01a1.28 1.28 0 1 0 1.28 1.27 1.28 1.28 0 0 0 -1.28-1.27m-4.61 0a1.28 1.28 0 1 0 0 2.56 1.28 1.28 0 1 0 0-2.56" fill="#73b800"/></svg>