<svg viewBox="0 0 19.64 19.64" xmlns="http://www.w3.org/2000/svg"><path d="m19.2 17.45a3.67 3.67 0 0 1 -1.7 1.48 5.33 5.33 0 0 1 -2.59.71 10.74 10.74 0 0 1 -3.65-1 13 13 0 0 1 -2.44-1.16 23.54 23.54 0 0 1 -6.69-6.69 13 13 0 0 1 -1.13-2.41 10.74 10.74 0 0 1 -1-3.65 5.33 5.33 0 0 1 .71-2.6 3.67 3.67 0 0 1 1.48-1.7 6.21 6.21 0 0 1 1.94-.43.71.71 0 0 1 .29 0c.29.1.6.78.74 1.06.45.79.88 1.6 1.34 2.38.22.36.64.81.64 1.24 0 .85-2.52 2.09-2.52 2.85a3 3 0 0 0 .54 1.2 13.88 13.88 0 0 0 5.7 5.7 3 3 0 0 0 1.2.54c.75 0 2-2.52 2.85-2.52.43 0 .88.42 1.24.64.78.46 1.59.89 2.38 1.34.28.14 1 .45 1.06.74a.71.71 0 0 1 0 .29 6.2 6.2 0 0 1 -.39 1.99z" fill="#73b800"/></svg>